<?xml version="1.0" encoding="utf-8"?>
<!-- Generator: Adobe Illustrator 18.0.0, SVG Export Plug-In . SVG Version: 6.00 Build 0)  -->
<!DOCTYPE svg PUBLIC "-//W3C//DTD SVG 1.1//EN" "http://www.w3.org/Graphics/SVG/1.1/DTD/svg11.dtd">
<svg version="1.1" xmlns="http://www.w3.org/2000/svg" xmlns:xlink="http://www.w3.org/1999/xlink" x="0px" y="0px"
	 viewBox="0 0 1400 980" enable-background="new 0 0 1400 980" xml:space="preserve">
<g id="Background">
	<rect x="-16" y="-12" fill="#FFFFFF" width="1432" height="1004"/>
</g>
<g id="Object">
	<g>
		<path fill="#C8E9FB" d="M691.1,530.2c-64.3,0-118.7,19.4-118.7,42.4c0,23,54.3,42.4,118.7,42.4c64.3,0,118.7-19.4,118.7-42.4
			C809.8,549.6,755.5,530.2,691.1,530.2z"/>
		<path fill="#C8E9FB" d="M691.1,804.8c-64.3,0-118.7,19.4-118.7,42.4c0,23,54.3,42.4,118.7,42.4c64.3,0,118.7-19.4,118.7-42.4
			C809.8,824.2,755.5,804.8,691.1,804.8z"/>
		<path fill="#C8E9FB" d="M806.9,590.1c-0.2,0.2-0.4,0.4-0.6,0.6c-1.1,1-2.2,2-3.5,3c-0.2,0.1-0.4,0.3-0.6,0.4
			c-1.2,0.9-2.5,1.8-3.8,2.7c-0.2,0.1-0.4,0.3-0.6,0.4c-1.5,0.9-3,1.9-4.6,2.8c-0.3,0.2-0.7,0.4-1,0.6c-1.7,0.9-3.4,1.8-5.2,2.6
			c-0.1,0.1-0.3,0.1-0.4,0.2c-1.7,0.8-3.6,1.6-5.4,2.3c-0.4,0.1-0.7,0.3-1.1,0.4c-2,0.8-4,1.5-6.1,2.2c-0.4,0.1-0.8,0.3-1.3,0.4
			c-2.1,0.7-4.3,1.4-6.5,2c-0.1,0-0.2,0.1-0.3,0.1c-2.3,0.7-4.7,1.3-7.1,1.9c-0.5,0.1-1,0.2-1.5,0.4c-2.4,0.6-4.8,1.1-7.3,1.6
			c-0.4,0.1-0.9,0.2-1.3,0.3c-2.4,0.5-4.8,0.9-7.2,1.3c-0.4,0.1-0.7,0.1-1,0.2c-2.6,0.4-5.4,0.8-8.1,1.2c-0.6,0.1-1.2,0.2-1.8,0.2
			c-2.8,0.3-5.6,0.7-8.5,0.9c-0.3,0-0.6,0.1-1,0.1c-2.7,0.2-5.4,0.5-8.2,0.6c-0.5,0-1.1,0.1-1.6,0.1c-2.9,0.2-5.9,0.3-8.9,0.4
			c-0.6,0-1.2,0-1.9,0.1c-3.1,0.1-6.2,0.1-9.4,0.1c-3.2,0-6.3-0.1-9.4-0.1c-0.6,0-1.2,0-1.9-0.1c-3-0.1-6-0.2-8.9-0.4
			c-0.5,0-1.1-0.1-1.6-0.1c-2.8-0.2-5.5-0.4-8.2-0.6c-0.3,0-0.6-0.1-0.9-0.1c-2.9-0.3-5.7-0.6-8.5-0.9c-0.6-0.1-1.2-0.1-1.8-0.2
			c-2.7-0.4-5.5-0.7-8.1-1.2c-0.3-0.1-0.7-0.1-1-0.2c-2.5-0.4-4.9-0.9-7.3-1.3c-0.4-0.1-0.9-0.2-1.3-0.3c-2.5-0.5-5-1.1-7.3-1.6
			c-0.5-0.1-1-0.2-1.5-0.4c-2.4-0.6-4.8-1.2-7.1-1.9c-0.1,0-0.2-0.1-0.3-0.1c-2.2-0.6-4.4-1.3-6.5-2c-0.4-0.1-0.8-0.3-1.3-0.4
			c-2.1-0.7-4.1-1.5-6.1-2.2c-0.4-0.1-0.7-0.3-1.1-0.4c-1.9-0.8-3.7-1.5-5.4-2.3c-0.1-0.1-0.3-0.1-0.5-0.2c-1.8-0.8-3.5-1.7-5.2-2.6
			c-0.3-0.2-0.7-0.4-1-0.6c-1.6-0.9-3.2-1.8-4.6-2.7c-0.2-0.1-0.4-0.3-0.6-0.4c-1.3-0.9-2.6-1.8-3.8-2.7c-0.2-0.1-0.4-0.3-0.6-0.4
			c-1.2-1-2.4-2-3.4-3c-0.2-0.2-0.4-0.4-0.7-0.7c-1-1.1-2-2.1-2.9-3.2c0,0,0,0,0-0.1V833c0,0,0,0,0-0.1c0.9-1.1,1.8-2.2,2.9-3.2
			c0.2-0.2,0.4-0.4,0.7-0.7c1.1-1,2.2-2,3.4-3c0.2-0.1,0.4-0.3,0.6-0.4c1.2-0.9,2.4-1.8,3.8-2.7c0.2-0.1,0.4-0.3,0.6-0.4
			c1.4-0.9,3-1.9,4.6-2.7c0.3-0.2,0.7-0.4,1-0.6c1.7-0.9,3.4-1.8,5.2-2.6c0.1-0.1,0.3-0.1,0.5-0.2c1.7-0.8,3.6-1.6,5.4-2.3
			c0.4-0.1,0.7-0.3,1.1-0.4c2-0.8,4-1.5,6.1-2.2c0.4-0.1,0.8-0.3,1.3-0.4c2.1-0.7,4.3-1.4,6.5-2c0.1,0,0.2-0.1,0.3-0.1
			c2.3-0.7,4.7-1.3,7.1-1.9c0.5-0.1,1-0.2,1.5-0.4c2.4-0.6,4.8-1.1,7.3-1.6c0.4-0.1,0.9-0.2,1.3-0.3c2.4-0.5,4.8-0.9,7.3-1.3
			c0.3-0.1,0.7-0.1,1-0.2c2.6-0.4,5.3-0.8,8.1-1.2c0.6-0.1,1.2-0.2,1.8-0.2c2.8-0.3,5.6-0.7,8.4-0.9c0.3,0,0.6-0.1,0.9-0.1
			c2.7-0.2,5.4-0.5,8.2-0.6c0.5,0,1.1-0.1,1.6-0.1c2.9-0.2,5.9-0.3,8.9-0.4c0.6,0,1.2,0,1.9-0.1c3.1-0.1,6.2-0.1,9.4-0.1
			c3.2,0,6.3,0.1,9.4,0.1c0.6,0,1.2,0,1.9,0.1c3,0.1,6,0.2,8.9,0.4c0.5,0,1.1,0.1,1.6,0.1c2.8,0.2,5.5,0.4,8.2,0.6
			c0.3,0,0.6,0.1,1,0.1c2.9,0.3,5.7,0.6,8.4,0.9c0.6,0.1,1.2,0.2,1.8,0.2c2.7,0.4,5.4,0.7,8.1,1.2c0.4,0.1,0.7,0.1,1,0.2
			c2.5,0.4,4.9,0.9,7.2,1.3c0.4,0.1,0.9,0.2,1.3,0.3c2.5,0.5,4.9,1.1,7.3,1.6c0.5,0.1,1,0.2,1.5,0.4c2.4,0.6,4.8,1.2,7.1,1.9
			c0.1,0,0.2,0.1,0.3,0.1c2.2,0.6,4.4,1.3,6.5,2c0.4,0.1,0.8,0.3,1.3,0.4c2.1,0.7,4.1,1.5,6.1,2.2c0.4,0.1,0.7,0.3,1.1,0.4
			c1.9,0.8,3.7,1.5,5.4,2.3c0.1,0.1,0.3,0.1,0.4,0.2c1.8,0.8,3.5,1.7,5.2,2.6c0.3,0.2,0.7,0.4,1,0.6c1.6,0.9,3.2,1.8,4.6,2.8
			c0.2,0.1,0.4,0.3,0.6,0.4c1.3,0.9,2.6,1.8,3.8,2.7c0.2,0.1,0.4,0.3,0.6,0.4c1.2,1,2.4,2,3.5,3c0.2,0.2,0.4,0.4,0.6,0.6
			c1,1.1,2,2.1,2.9,3.2c0,0,0,0,0,0.1V586.8c0,0,0,0,0,0.1C808.9,588,807.9,589,806.9,590.1z"/>
		<path fill="#6B91AE" d="M691.1,524.8c-69.6,0-124,21-124,47.8v274.6c0,26.8,54.5,47.8,124,47.8c69.6,0,124-21,124-47.8V572.6
			C815.2,545.8,760.7,524.8,691.1,524.8z M691.1,889.6c-64.3,0-118.7-19.4-118.7-42.4c0-23,54.3-42.4,118.7-42.4
			c64.3,0,118.7,19.4,118.7,42.4C809.8,870.2,755.5,889.6,691.1,889.6z M809.8,833C809.8,833,809.8,833,809.8,833
			c-0.9-1.1-1.9-2.2-2.9-3.3c-0.2-0.2-0.4-0.4-0.6-0.6c-1.1-1-2.2-2-3.5-3c-0.2-0.1-0.4-0.3-0.6-0.4c-1.2-0.9-2.5-1.8-3.8-2.7
			c-0.2-0.1-0.4-0.3-0.6-0.4c-1.5-0.9-3-1.9-4.6-2.8c-0.3-0.2-0.7-0.4-1-0.6c-1.7-0.9-3.4-1.8-5.2-2.6c-0.1-0.1-0.3-0.1-0.4-0.2
			c-1.7-0.8-3.6-1.6-5.4-2.3c-0.4-0.1-0.7-0.3-1.1-0.4c-2-0.8-4-1.5-6.1-2.2c-0.4-0.1-0.8-0.3-1.3-0.4c-2.1-0.7-4.3-1.4-6.5-2
			c-0.1,0-0.2-0.1-0.3-0.1c-2.3-0.7-4.7-1.3-7.1-1.9c-0.5-0.1-1-0.2-1.5-0.4c-2.4-0.6-4.8-1.1-7.3-1.6c-0.4-0.1-0.9-0.2-1.3-0.3
			c-2.4-0.5-4.8-0.9-7.2-1.3c-0.4-0.1-0.7-0.1-1-0.2c-2.6-0.4-5.3-0.8-8.1-1.2c-0.6-0.1-1.2-0.2-1.8-0.2c-2.8-0.3-5.6-0.7-8.4-0.9
			c-0.3,0-0.6-0.1-1-0.1c-2.7-0.2-5.4-0.5-8.2-0.6c-0.5,0-1.1-0.1-1.6-0.1c-2.9-0.2-5.9-0.3-8.9-0.4c-0.6,0-1.2,0-1.9-0.1
			c-3.1-0.1-6.2-0.1-9.4-0.1c-3.2,0-6.3,0.1-9.4,0.1c-0.6,0-1.2,0-1.9,0.1c-3,0.1-6,0.2-8.9,0.4c-0.5,0-1.1,0.1-1.6,0.1
			c-2.8,0.2-5.5,0.4-8.2,0.6c-0.3,0-0.6,0.1-0.9,0.1c-2.9,0.3-5.7,0.6-8.4,0.9c-0.6,0.1-1.2,0.2-1.8,0.2c-2.7,0.4-5.4,0.7-8.1,1.2
			c-0.3,0.1-0.7,0.1-1,0.2c-2.5,0.4-4.9,0.9-7.3,1.3c-0.4,0.1-0.9,0.2-1.3,0.3c-2.5,0.5-5,1.1-7.3,1.6c-0.5,0.1-1,0.2-1.5,0.4
			c-2.4,0.6-4.8,1.2-7.1,1.9c-0.1,0-0.2,0.1-0.3,0.1c-2.2,0.6-4.4,1.3-6.5,2c-0.4,0.1-0.8,0.3-1.3,0.4c-2.1,0.7-4.1,1.5-6.1,2.2
			c-0.4,0.1-0.7,0.3-1.1,0.4c-1.9,0.8-3.7,1.5-5.4,2.3c-0.1,0.1-0.3,0.1-0.5,0.2c-1.8,0.8-3.5,1.7-5.2,2.6c-0.3,0.2-0.7,0.4-1,0.6
			c-1.6,0.9-3.1,1.8-4.6,2.7c-0.2,0.1-0.4,0.3-0.6,0.4c-1.3,0.9-2.6,1.8-3.8,2.7c-0.2,0.1-0.4,0.3-0.6,0.4c-1.2,1-2.4,2-3.4,3
			c-0.2,0.2-0.4,0.4-0.7,0.7c-1,1.1-2,2.1-2.9,3.2c0,0,0,0,0,0.1V586.8c0,0,0,0,0,0.1c0.9,1.1,1.8,2.2,2.9,3.2
			c0.2,0.2,0.4,0.4,0.7,0.7c1.1,1,2.2,2,3.4,3c0.2,0.1,0.4,0.3,0.6,0.4c1.2,0.9,2.4,1.8,3.8,2.7c0.2,0.1,0.4,0.3,0.6,0.4
			c1.4,0.9,3,1.9,4.6,2.7c0.3,0.2,0.7,0.4,1,0.6c1.7,0.9,3.4,1.8,5.2,2.6c0.1,0.1,0.3,0.1,0.5,0.2c1.7,0.8,3.6,1.6,5.4,2.3
			c0.4,0.1,0.7,0.3,1.1,0.4c2,0.8,4,1.5,6.1,2.2c0.4,0.1,0.8,0.3,1.3,0.4c2.1,0.7,4.3,1.4,6.5,2c0.1,0,0.2,0.1,0.3,0.1
			c2.3,0.7,4.7,1.3,7.1,1.9c0.5,0.1,1,0.2,1.5,0.4c2.4,0.6,4.8,1.1,7.3,1.6c0.4,0.1,0.9,0.2,1.3,0.3c2.4,0.5,4.8,0.9,7.3,1.3
			c0.3,0.1,0.7,0.1,1,0.2c2.6,0.4,5.4,0.8,8.1,1.2c0.6,0.1,1.2,0.2,1.8,0.2c2.8,0.3,5.6,0.7,8.5,0.9c0.3,0,0.6,0.1,0.9,0.1
			c2.7,0.2,5.4,0.5,8.2,0.6c0.5,0,1.1,0.1,1.6,0.1c2.9,0.2,5.9,0.3,8.9,0.4c0.6,0,1.2,0,1.9,0.1c3.1,0.1,6.2,0.1,9.4,0.1
			c3.2,0,6.3-0.1,9.4-0.1c0.6,0,1.2,0,1.9-0.1c3-0.1,6-0.2,8.9-0.4c0.5,0,1.1-0.1,1.6-0.1c2.8-0.2,5.5-0.4,8.2-0.6
			c0.3,0,0.6-0.1,1-0.1c2.9-0.3,5.7-0.6,8.5-0.9c0.6-0.1,1.2-0.1,1.8-0.2c2.7-0.4,5.5-0.7,8.1-1.2c0.4-0.1,0.7-0.1,1-0.2
			c2.5-0.4,4.9-0.9,7.2-1.3c0.4-0.1,0.9-0.2,1.3-0.3c2.5-0.5,4.9-1.1,7.3-1.6c0.5-0.1,1-0.2,1.5-0.4c2.4-0.6,4.8-1.2,7.1-1.9
			c0.1,0,0.2-0.1,0.3-0.1c2.2-0.6,4.4-1.3,6.5-2c0.4-0.1,0.8-0.3,1.3-0.4c2.1-0.7,4.1-1.5,6.1-2.2c0.4-0.1,0.7-0.3,1.1-0.4
			c1.9-0.8,3.7-1.5,5.4-2.3c0.1-0.1,0.3-0.1,0.4-0.2c1.8-0.8,3.5-1.7,5.2-2.6c0.3-0.2,0.7-0.4,1-0.6c1.6-0.9,3.2-1.8,4.6-2.8
			c0.2-0.1,0.4-0.3,0.6-0.4c1.3-0.9,2.6-1.8,3.8-2.7c0.2-0.1,0.4-0.3,0.6-0.4c1.2-1,2.4-2,3.5-3c0.2-0.2,0.4-0.4,0.6-0.6
			c1-1.1,2-2.1,2.9-3.2c0,0,0,0,0-0.1V833z M691.1,615.1c-64.3,0-118.7-19.4-118.7-42.4c0-23,54.3-42.4,118.7-42.4
			c64.3,0,118.7,19.4,118.7,42.4C809.8,595.6,755.5,615.1,691.1,615.1z"/>
	</g>
	<g>
		<polygon fill="#C8E9FB" points="308.7,276.5 270.8,91.9 250.5,290 		"/>
		<polygon fill="#C8E9FB" points="266.2,84.3 97.5,325.6 245,291.3 		"/>
		<polygon fill="#C8E9FB" points="444.7,356.6 275.5,88.2 314.3,276.8 		"/>
		<polygon fill="#C8E9FB" points="98.4,330.9 232.6,412.1 244.4,297 		"/>
		<polygon fill="#C8E9FB" points="249.9,295.7 237.9,413.1 446.1,363.7 311.4,281.3 		"/>
		<path fill="#6B91AE" d="M455.4,363.6c0-0.1,0-0.2-0.1-0.2L272.1,72.8l0,0l0,0c0,0,0,0,0,0c-0.2-0.3-0.5-0.6-0.8-0.8
			c-0.1-0.1-0.2-0.1-0.3-0.2c-0.3-0.1-0.5-0.2-0.8-0.2c-0.1,0-0.2-0.1-0.2-0.1c0,0-0.1,0-0.1,0c0,0-0.1,0-0.1,0
			c-0.8,0-1.5,0.5-1.9,1c0,0-0.1,0.1-0.1,0.1L89.1,328.3c0,0,0,0,0,0.1c-0.1,0.2-0.2,0.4-0.3,0.6c0,0.1-0.1,0.2-0.1,0.3
			c0,0.2,0,0.5,0,0.7c0,0.1,0,0.2,0,0.4c0,0,0,0,0,0c0,0,0,0,0,0c0.1,0.3,0.2,0.5,0.3,0.7c0.1,0.1,0.1,0.2,0.1,0.3
			c0.2,0.3,0.5,0.5,0.8,0.7c0,0,0,0,0,0l143.5,86.7c0,0,0,0,0,0c0.3,0.2,0.7,0.3,1.1,0.4c0.1,0,0.2,0,0.3,0h0c0,0,0,0,0,0
			c0,0,0,0,0,0c0,0,0,0,0,0c0.2,0,0.4,0,0.6-0.1l218.2-51.7c0.1,0,0.2-0.1,0.3-0.2c0.2-0.1,0.3-0.1,0.5-0.3c0.2-0.1,0.4-0.3,0.5-0.5
			c0.1-0.1,0.2-0.1,0.3-0.3c0-0.1,0-0.2,0.1-0.2c0-0.1,0.1-0.1,0.1-0.2c0-0.1,0-0.2,0-0.3c0.1-0.3,0.1-0.5,0.1-0.8
			c0-0.1,0-0.3,0-0.4C455.7,364.2,455.6,363.9,455.4,363.6z M444.7,356.6l-130.4-79.8L275.5,88.2L444.7,356.6z M270.8,91.9l38,184.6
			L250.5,290L270.8,91.9z M266.2,84.3l-21.2,207L97.5,325.6L266.2,84.3z M232.6,412.1L98.4,330.9l146-34L232.6,412.1z M237.9,413.1
			l12-117.4l61.5-14.3l134.7,82.4L237.9,413.1z"/>
	</g>
	<g>
		<polygon fill="#C8E9FB" points="693.8,56.8 693.8,223.2 829.5,138.5 		"/>
		<polygon fill="#C8E9FB" points="676.8,434.5 676.8,267.9 545.6,345.2 		"/>
		<polygon fill="#C8E9FB" points="688.5,254.8 688.5,232.9 682.2,236.8 682.2,258.5 		"/>
		<polygon fill="#C8E9FB" points="682.2,264.7 682.2,434.7 829.5,343.8 691.1,259.4 		"/>
		<polygon fill="#C8E9FB" points="688.5,56.7 545.6,138.7 679.6,232.1 688.5,226.5 		"/>
		<polygon fill="#C8E9FB" points="693.8,254.8 832,339.1 832,143.3 693.8,229.5 		"/>
		<polygon fill="#C8E9FB" points="543.3,340.3 676.8,261.7 676.8,236.7 543.3,143.6 		"/>
		<path fill="#6B91AE" d="M837.3,138.4c0-0.4-0.1-0.8-0.3-1.1c-0.1-0.1-0.1-0.2-0.2-0.3c-0.2-0.2-0.4-0.5-0.6-0.6
			c-0.1,0-0.1-0.1-0.2-0.2L692.5,49.8c0,0-0.1,0-0.1,0c-0.4-0.2-0.8-0.3-1.2-0.3c0,0,0,0,0,0c0,0,0,0,0,0c-0.4,0-0.8,0.1-1.2,0.3
			c0,0-0.1,0-0.1,0l-150.5,86.4c-0.4,0.2-0.7,0.5-0.9,0.9c-0.1,0.1-0.1,0.2-0.1,0.3c-0.2,0.3-0.2,0.6-0.3,1c0,0.1-0.1,0.1-0.1,0.2
			V345c0,0.1,0,0.1,0,0.1c0,0.3,0.1,0.6,0.2,0.9c0,0.1,0,0.2,0.1,0.3c0,0,0,0,0,0.1c0.1,0.1,0.2,0.2,0.3,0.3
			c0.2,0.2,0.3,0.4,0.5,0.6L678,441.7c0,0,0.1,0,0.1,0c0.4,0.3,0.9,0.4,1.4,0.4c0,0,0,0,0,0l0,0c0,0,0,0,0,0c0,0,0,0,0,0
			c0.4,0,0.8-0.1,1.2-0.3c0,0,0,0,0.1-0.1c0,0,0.1,0,0.1,0l155.2-95.7c0.2-0.1,0.3-0.4,0.5-0.5c0.1-0.1,0.3-0.2,0.4-0.4
			c0,0,0,0,0-0.1c0-0.1,0.1-0.2,0.1-0.2c0.1-0.3,0.2-0.6,0.2-0.9c0-0.1,0-0.1,0-0.2L837.3,138.4
			C837.4,138.4,837.4,138.4,837.3,138.4C837.4,138.4,837.4,138.4,837.3,138.4C837.4,138.4,837.3,138.4,837.3,138.4z M693.8,56.8
			l135.7,81.7l-135.7,84.7V56.8z M676.8,434.5l-131.2-89.3l131.2-77.3V434.5z M676.8,261.7l-133.5,78.7V143.6l133.5,93.1V261.7z
			 M679.6,232.1l-133.9-93.4l142.8-81.9v169.8L679.6,232.1z M688.5,232.9v21.9l-6.3,3.7v-21.7L688.5,232.9z M682.2,434.7v-170l9-5.3
			l138.4,84.4L682.2,434.7z M832,339.1l-138.2-84.2v-25.3L832,143.3V339.1z"/>
	</g>
	<g>
		<polygon fill="#C8E9FB" points="1184.5,243.1 1325.3,300.3 1228.5,94.6 		"/>
		<polygon fill="#C8E9FB" points="1179.1,242.5 1224,90.8 994.7,145.6 1048.8,283.5 		"/>
		<polygon fill="#C8E9FB" points="1050.8,288.5 1094.1,398.7 1323.5,305.3 1181.1,247.5 		"/>
		<polygon fill="#C8E9FB" points="991.4,151.8 940.3,317.6 1043.7,285.1 		"/>
		<polygon fill="#C8E9FB" points="943.2,322.3 1087.5,396.5 1045.7,290.1 		"/>
		<path fill="#6B91AE" d="M1333.1,304.2C1333.1,304.2,1333.1,304.2,1333.1,304.2L1230.4,86c0,0,0,0,0-0.1c-0.1-0.1-0.1-0.2-0.2-0.3
			c-0.1-0.2-0.3-0.4-0.4-0.5c-0.1-0.1-0.2-0.1-0.3-0.2c-0.2-0.1-0.4-0.2-0.6-0.3c-0.1,0-0.1-0.1-0.2-0.1c-0.1,0-0.1,0-0.2,0
			c-0.2,0-0.4-0.1-0.6-0.1c-0.1,0-0.3,0-0.4,0c-0.1,0-0.1,0-0.2,0l-236.9,56.6c-0.1,0-0.2,0.1-0.3,0.1c-0.2,0.1-0.4,0.2-0.6,0.3
			c-0.1,0.1-0.2,0.2-0.3,0.3c-0.2,0.1-0.3,0.3-0.4,0.5c0,0.1-0.1,0.1-0.2,0.2c0,0.1,0,0.1-0.1,0.2c0,0.1-0.1,0.1-0.1,0.2l-54.8,178
			c0,0.1,0,0.2,0,0.3c0,0.1,0,0.3-0.1,0.4c0,0.2,0,0.4,0.1,0.6c0,0.1,0,0.2,0,0.3c0,0,0,0.1,0.1,0.1c0,0.1,0.1,0.2,0.2,0.3
			c0.1,0.2,0.2,0.3,0.3,0.4c0.1,0.1,0.2,0.2,0.3,0.3c0.1,0.1,0.3,0.2,0.4,0.3c0.1,0,0.1,0.1,0.1,0.1l156.4,80.5c0,0,0.1,0,0.1,0
			c0,0,0.1,0,0.1,0.1c0.3,0.1,0.7,0.2,1,0.2c0,0,0,0,0,0l0,0c0,0,0,0,0,0c0.3,0,0.7-0.1,1-0.2l238.1-96.9c0.1,0,0.2-0.1,0.3-0.2
			c0.1-0.1,0.2-0.1,0.3-0.2c0.4-0.3,0.7-0.6,0.8-1c0,0,0,0,0-0.1c0,0,0,0,0,0c0,0,0,0,0,0c0-0.1,0-0.2,0.1-0.4
			c0.1-0.2,0.1-0.5,0.1-0.7c0-0.1-0.1-0.2-0.1-0.3C1333.2,304.7,1333.2,304.5,1333.1,304.2z M1224,90.8l-45,151.7l-130.3,40.9
			l-54.1-137.9L1224,90.8z M991.4,151.8l52.3,133.2l-103.4,32.5L991.4,151.8z M943.2,322.3l102.4-32.2l41.8,106.5L943.2,322.3z
			 M1094.1,398.7l-43.3-110.2l130.4-41l142.4,57.8L1094.1,398.7z M1184.5,243.1l44-148.5l96.8,205.6L1184.5,243.1z"/>
	</g>
	<g>
		<polygon fill="#C8E9FB" points="385.2,799.7 417.1,821.1 417.1,583.4 385.2,630.4 		"/>
		<polygon fill="#C8E9FB" points="385.2,872.2 416.1,826.8 385.2,806.2 		"/>
		<polygon fill="#C8E9FB" points="343.6,774.3 343.6,638.5 268.5,650.5 268.5,771.1 		"/>
		<polygon fill="#C8E9FB" points="215.3,769.9 215.3,638.9 156.4,624.8 156.4,796 		"/>
		<polygon fill="#C8E9FB" points="156.4,801.9 156.4,870.6 263.1,896.2 263.1,776.2 218.5,774.3 		"/>
		<polygon fill="#C8E9FB" points="215.3,524.4 130.5,562.1 155.7,619.1 215.3,633.4 		"/>
		<polygon fill="#C8E9FB" points="129.6,807.9 151.1,798.4 151.1,621.9 129.6,573.4 		"/>
		<polygon fill="#C8E9FB" points="151.1,860 151.1,804.3 130.5,813.4 		"/>
		<polygon fill="#C8E9FB" points="343.6,528.3 220.6,523 220.6,634.6 265.9,645.5 343.6,633 		"/>
		<polygon fill="#C8E9FB" points="349,775.6 379.8,796.2 379.8,632.7 349,637.6 		"/>
		<polygon fill="#C8E9FB" points="268.5,776.4 268.5,896.4 379.8,878.6 379.8,802.6 345.4,779.7 		"/>
		<polygon fill="#C8E9FB" points="349,530.7 349,632.2 380.9,627.1 416.1,575.4 		"/>
		<polygon fill="#C8E9FB" points="220.6,769 263.1,770.8 263.1,650.3 220.6,640.2 		"/>
		<path fill="#6B91AE" d="M422.5,574.2c0-0.1-0.1-0.2-0.1-0.3c-0.1-0.2-0.1-0.3-0.2-0.5c-0.1-0.1-0.2-0.3-0.3-0.4
			c-0.1-0.1-0.2-0.3-0.4-0.4c-0.1-0.1-0.1-0.1-0.2-0.2l-73.5-49c-0.1,0-0.1,0-0.2-0.1c-0.3-0.2-0.7-0.3-1-0.3c-0.1,0-0.1,0-0.2-0.1
			l-128.4-5.4c0,0,0,0-0.1,0c0,0,0,0,0,0c0,0,0,0-0.1,0c-0.3,0-0.7,0.1-1,0.2c0,0,0,0,0,0c0,0,0,0,0,0l-91,40.5
			c-0.1,0.1-0.2,0.2-0.3,0.2c-0.2,0.1-0.4,0.2-0.5,0.4c-0.1,0.1-0.2,0.3-0.3,0.4c-0.1,0.1-0.2,0.3-0.3,0.4c-0.1,0.2-0.1,0.4-0.1,0.7
			c0,0.1-0.1,0.2-0.1,0.3v0c0,0,0,0,0,0v251.3c0,0,0,0,0,0c0,0.2,0.1,0.4,0.1,0.6c0,0.2,0,0.3,0.1,0.5c0,0,0,0,0,0l26.8,60.7
			c0,0.1,0.1,0.1,0.1,0.1c0.1,0.3,0.3,0.5,0.6,0.8c0.1,0.1,0.2,0.1,0.3,0.2c0.2,0.1,0.4,0.3,0.7,0.3c0.1,0,0.1,0.1,0.2,0.1l112,26.8
			c0.2,0.1,0.4,0.1,0.6,0.1c0.1,0,0.3,0,0.4,0l116.7-18.7c0.1,0,0.2-0.1,0.3-0.1c0.2-0.1,0.4-0.1,0.5-0.2c0.1-0.1,0.3-0.2,0.4-0.3
			c0.2-0.1,0.3-0.2,0.4-0.4c0.1-0.1,0.1-0.1,0.2-0.2l37.3-54.8c0-0.1,0.1-0.2,0.1-0.2c0.1-0.2,0.2-0.3,0.2-0.5
			c0.1-0.2,0.1-0.3,0.1-0.5c0-0.1,0.1-0.2,0.1-0.3V574.7c0-0.1,0-0.2-0.1-0.3C422.4,574.4,422.5,574.3,422.5,574.2z M151.1,860
			l-20.6-46.6l20.6-9.2V860z M151.1,798.4l-21.5,9.5V573.4l21.5,48.6V798.4z M130.5,562.1l84.8-37.7v109l-59.6-14.3L130.5,562.1z
			 M215.3,638.9v131L156.4,796V624.8L215.3,638.9z M263.1,896.2l-106.7-25.6v-68.8l62-27.6l44.6,1.9V896.2z M263.1,770.8l-42.5-1.8
			V640.2l42.5,10.2V770.8z M265.9,645.5l-45.3-10.8V523l123,5.2V633L265.9,645.5z M343.6,638.5v135.8l-75.2-3.2V650.5L343.6,638.5z
			 M379.8,878.6l-111.3,17.8v-120l77,3.3l34.4,22.9V878.6z M379.8,796.2L349,775.6v-138l30.8-4.9V796.2z M380.9,627.1l-31.9,5.1
			V530.7l67.1,44.7L380.9,627.1z M385.2,872.2v-66l30.9,20.6L385.2,872.2z M417.1,821.1l-32-21.3V630.4l32-47V821.1z"/>
	</g>
	<g>
		<polygon fill="#C8E9FB" points="1033.4,774.5 1033.4,855.2 1198.4,877.8 1198.4,777.6 1155.1,752.5 		"/>
		<polygon fill="#C8E9FB" points="1158.3,748.1 1198.4,771.4 1198.4,625.4 1158.3,619.9 		"/>
		<polygon fill="#C8E9FB" points="1152.9,747.4 1152.9,619.1 1033.4,602.8 1033.4,769 		"/>
		<polygon fill="#C8E9FB" points="1158.3,496.4 1158.3,614.4 1200.4,620.2 1274.5,563.8 		"/>
		<polygon fill="#C8E9FB" points="1152.9,495 995.1,523.5 1032.5,597.2 1152.9,613.7 		"/>
		<polygon fill="#C8E9FB" points="1203.8,875.5 1274.5,821.7 1203.8,780.7 		"/>
		<polygon fill="#C8E9FB" points="1203.8,774.5 1276.6,816.7 1276.6,568.9 1203.8,624.3 		"/>
		<polygon fill="#C8E9FB" points="1028,846.4 1028,775.4 995.1,781.4 		"/>
		<polygon fill="#C8E9FB" points="993.7,776.2 1028,770 1028,600.3 993.7,532.7 		"/>
		<path fill="#6B91AE" d="M1282,563.3c0-0.1-0.1-0.2-0.1-0.3c0-0.3-0.1-0.6-0.3-0.8c-0.1-0.1-0.1-0.2-0.2-0.3
			c-0.2-0.2-0.4-0.4-0.6-0.6c-0.1-0.1-0.1-0.1-0.2-0.2l-123.7-71.7c-0.1,0-0.1,0-0.2-0.1c-0.1-0.1-0.2-0.1-0.4-0.1
			c-0.2-0.1-0.4-0.1-0.6-0.1c-0.1,0-0.1,0-0.2,0c-0.1,0-0.1,0-0.2,0c-0.1,0-0.2,0-0.3,0l-164.5,29.7c-0.1,0-0.2,0.1-0.2,0.1
			c-0.2,0.1-0.5,0.2-0.7,0.3c-0.1,0.1-0.2,0.1-0.3,0.2c-0.2,0.2-0.4,0.4-0.5,0.6c0,0.1-0.1,0.1-0.2,0.2c0,0,0,0,0,0.1
			c-0.2,0.3-0.3,0.7-0.3,1.1v257.9c0,0,0,0,0,0c0,0,0,0,0,0c0,0.4,0.1,0.7,0.3,1.1c0,0,0,0.1,0,0.1l39.7,78.2c0,0.1,0.1,0.1,0.2,0.2
			c0.2,0.2,0.3,0.4,0.5,0.6c0.1,0.1,0.2,0.2,0.3,0.2c0.2,0.1,0.5,0.2,0.7,0.3c0.1,0,0.2,0.1,0.3,0.1l170.4,23.3c0.1,0,0.2,0,0.4,0
			c0.3,0,0.7-0.1,1-0.2c0.1,0,0.2-0.1,0.3-0.1c0.1-0.1,0.3-0.1,0.4-0.2l78.2-59.5c0,0,0.1-0.1,0.1-0.1c0.2-0.2,0.4-0.5,0.6-0.8
			c0-0.1,0.1-0.1,0.1-0.2c0.1-0.3,0.2-0.7,0.2-1.1V563.5C1282,563.5,1281.9,563.4,1282,563.3C1281.9,563.4,1282,563.4,1282,563.3z
			 M1028,846.4l-33-65l33-6V846.4z M1028,770l-34.3,6.2V532.7l34.3,67.6V770z M995.1,523.5l157.8-28.5v118.7l-120.4-16.5
			L995.1,523.5z M1152.9,619.1v128.3L1033.4,769V602.8L1152.9,619.1z M1198.4,877.8l-165-22.6v-80.8l121.7-22l43.3,25.1V877.8z
			 M1198.4,771.4l-40.1-23.3V619.9l40.1,5.5V771.4z M1200.4,620.2l-42.1-5.8v-118l116.2,67.4L1200.4,620.2z M1203.8,875.5v-94.8
			l70.7,41L1203.8,875.5z M1276.6,816.7l-72.8-42.2V624.3l72.8-55.4V816.7z"/>
	</g>
</g>
<g id="Designed_by_Vecteezy">
	<g>
		<g>
			<g>
				<path fill="#4D3F38" d="M732.3,937.7c0.8,0,1.6,0.7,1.6,0.7L720,968.2c-1.5,0-5.2,0.2-6.1,0.2c-0.8,0-1.6-0.7-1.6-0.7l-4.8-29.8
					c2.9,0,6.5-0.2,7.6-0.2c0.8,0,1.6,0.7,1.6,0.7l1.5,14.6c0.1,1.3,0.1,3,0.1,4.8c0.5-2,1-3.9,1.5-5.2l5.8-14.7
					C728.1,937.9,731.3,937.7,732.3,937.7L732.3,937.7z"/>
			</g>
			<g>
				<path fill="#4D3F38" d="M746.6,952.4c0,3.2-1.8,5.4-6.3,6.3l-4.7,1c0.4,2,1.6,3,3.8,3c2.6,0,4.4-2,4.4-2s1.3,0.7,1.3,2.3
					c0,2.7-4.1,5.6-9,5.6c-4.9,0-8.1-3.1-8.1-8.3c0-6,4.3-14.2,11.9-14.2C744,946.1,746.6,948.6,746.6,952.4L746.6,952.4z
					 M738.6,955.5c1-0.3,1.3-1.2,1.3-2.1c0-0.9-0.3-2.2-1.3-2.2c-1.9,0-2.7,3-3,5.3L738.6,955.5z"/>
			</g>
			<g>
				<path fill="#4D3F38" d="M759.4,946.1c3.8,0,6.7,2,6.7,4.7c0,3.3-4,4.5-4,4.5s-1.2-3.6-3.9-3.6c-1.8,0-2.9,1.8-2.9,5.8
					c0,3.6,1,5.2,3.3,5.2c2.4,0,3.9-1.6,3.9-1.6s1.3,0.7,1.3,2.2c0,2.6-4,5.3-8.6,5.3c-4.9,0-8-3.1-8-8.2
					C747.3,954.3,751.7,946.1,759.4,946.1L759.4,946.1z"/>
			</g>
			<g>
				<path fill="#4D3F38" d="M777.8,941.3c0.9,0,1.5,0.7,1.5,0.7l-0.7,4.5h4.8l-1.1,3.5c-0.4,1.1-0.9,1.7-2,1.7h-2.5l-1.4,8.9
					c-0.2,1.4,0.1,2.1,1.1,2.1c0.9,0,1.8-0.5,1.8-0.5s1.3,0.7,1.3,2.2c0,2.2-3.1,4.3-7,4.3c-4.1,0-5.8-2.5-5.1-7l1.6-9.9h-2.6
					l1.1-3.6c0.3-0.9,1.1-1.6,2-1.6h1.3l1.5-4.2C775.2,941.9,777,941.3,777.8,941.3L777.8,941.3z"/>
			</g>
			<g>
				<path fill="#4D3F38" d="M801.2,952.4c0,3.2-1.8,5.4-6.3,6.3l-4.7,1c0.4,2,1.6,3,3.8,3c2.6,0,4.4-2,4.4-2s1.3,0.7,1.3,2.3
					c0,2.7-4.1,5.6-9,5.6c-4.9,0-8.1-3.1-8.1-8.3c0-6,4.3-14.2,11.9-14.2C798.6,946.1,801.2,948.6,801.2,952.4L801.2,952.4z
					 M793.2,955.5c1-0.3,1.3-1.2,1.3-2.1c0-0.9-0.3-2.2-1.3-2.2c-1.9,0-2.7,3-3,5.3L793.2,955.5z"/>
			</g>
			<g>
				<path fill="#4D3F38" d="M820.5,952.4c0,3.2-1.8,5.4-6.3,6.3l-4.7,1c0.4,2,1.6,3,3.8,3c2.6,0,4.4-2,4.4-2s1.3,0.7,1.3,2.3
					c0,2.7-4.1,5.6-9,5.6c-4.9,0-8.1-3.1-8.1-8.3c0-6,4.3-14.2,11.9-14.2C817.9,946.1,820.5,948.6,820.5,952.4L820.5,952.4z
					 M812.5,955.5c1-0.3,1.3-1.2,1.3-2.1c0-0.9-0.3-2.2-1.3-2.2c-1.9,0-2.7,3-3,5.3L812.5,955.5z"/>
			</g>
			<g>
				<path fill="#4D3F38" d="M836.3,960.5c0,0,1.6,1.5,1.6,4c0,3.3-2.8,4.2-5.2,4.2c-3.1,0-5.3-1.5-7.6-2.3c-0.6,0.7-1.3,1.5-1.9,2.3
					c0,0-3.5-0.1-3.5-2.4c0-2.9,4.8-7.8,9.9-13.4c-0.6-0.1-1.2-0.2-1.7-0.2c-2.9,0-4.1,1.5-4.1,1.5s-1.5-1.7-1.4-4
					c0.2-3.1,3.1-4,5.5-4c2.5,0,4.3,1,6.1,1.7l1.5-1.7c0,0,3.5,0.1,3.5,2.5c0,2.8-4.6,7.6-9.6,13c1.1,0.3,2,0.5,3,0.5
					C835.1,962.2,836.3,960.5,836.3,960.5L836.3,960.5z"/>
			</g>
			<g>
				<path fill="#4D3F38" d="M858.7,966.7c-1.2,7.6-6.4,11.4-13,11.4c-4.2,0-7.3-2.2-7.3-4.8c0-1.7,1.4-2.5,1.4-2.5s1.4,1.3,4.2,1.3
					c2.6,0,6.2-1.1,6.8-5.1l0.5-3.1c-1.8,2.6-4.1,4.6-7.1,4.6c-3.3,0-4.8-2.7-3.9-8.3l0.9-6c0.6-3.7,0.7-6.7,0.7-6.7
					c2.4-0.4,5.5-1.5,6.6-1.5c0.8,0,1.6,0.7,1.6,0.7l-1.2,7.5l-1.1,6.9c-0.1,0.6,0,1,0.6,1c2.8,0,4.3-7.9,4.3-7.9
					c0.6-3.7,0.7-6.7,0.7-6.7c2.4-0.4,5.5-1.5,6.6-1.5c0.9,0,1.6,0.7,1.6,0.7l-1.2,7.5L858.7,966.7z"/>
			</g>
		</g>
		<g>
			<path fill="#4D3F38" d="M538.1,947.4h7.4c1.7,0,3,0.1,3.8,0.4c1.2,0.3,2.2,1,3,1.9c0.8,0.9,1.5,2,1.9,3.3
				c0.4,1.3,0.7,2.9,0.7,4.8c0,1.7-0.2,3.1-0.6,4.3c-0.5,1.5-1.2,2.7-2.2,3.6c-0.7,0.7-1.7,1.2-2.9,1.6c-0.9,0.3-2.1,0.4-3.6,0.4
				h-7.7V947.4z M542.2,950.8v13.4h3c1.1,0,2-0.1,2.5-0.2c0.7-0.2,1.2-0.4,1.6-0.8c0.4-0.4,0.8-1,1.1-1.9c0.3-0.9,0.4-2.1,0.4-3.7
				s-0.1-2.8-0.4-3.6s-0.7-1.5-1.2-2c-0.5-0.5-1.1-0.8-1.9-0.9c-0.6-0.1-1.7-0.2-3.3-0.2H542.2z"/>
			<path fill="#4D3F38" d="M566.4,962.9l3.9,0.6c-0.5,1.4-1.3,2.5-2.3,3.2s-2.4,1.1-4,1.1c-2.5,0-4.4-0.8-5.6-2.5
				c-1-1.3-1.4-3-1.4-5c0-2.4,0.6-4.3,1.9-5.7c1.3-1.4,2.9-2.1,4.8-2.1c2.2,0,3.9,0.7,5.1,2.2c1.3,1.4,1.9,3.6,1.8,6.6h-9.7
				c0,1.1,0.3,2,0.9,2.7c0.6,0.6,1.3,1,2.2,1c0.6,0,1.1-0.2,1.5-0.5C565.8,964.1,566.2,963.6,566.4,962.9z M566.6,959
				c0-1.1-0.3-2-0.9-2.6c-0.6-0.6-1.2-0.9-2-0.9c-0.8,0-1.5,0.3-2.1,0.9c-0.6,0.6-0.8,1.4-0.8,2.5H566.6z"/>
			<path fill="#4D3F38" d="M571.6,963.4l3.9-0.6c0.2,0.8,0.5,1.3,1,1.7c0.5,0.4,1.2,0.6,2.1,0.6c1,0,1.8-0.2,2.3-0.6
				c0.3-0.3,0.5-0.6,0.5-1c0-0.3-0.1-0.5-0.3-0.7c-0.2-0.2-0.6-0.4-1.3-0.5c-3.1-0.7-5.1-1.3-5.9-1.9c-1.2-0.8-1.7-1.9-1.7-3.3
				c0-1.3,0.5-2.3,1.5-3.2c1-0.9,2.6-1.3,4.7-1.3c2,0,3.5,0.3,4.5,1c1,0.7,1.6,1.6,2,2.9l-3.6,0.7c-0.2-0.6-0.5-1-0.9-1.3
				c-0.4-0.3-1.1-0.5-1.9-0.5c-1,0-1.7,0.1-2.2,0.4c-0.3,0.2-0.4,0.5-0.4,0.8c0,0.3,0.1,0.5,0.4,0.7c0.3,0.3,1.6,0.6,3.6,1.1
				c2.1,0.5,3.5,1,4.3,1.7c0.8,0.7,1.2,1.6,1.2,2.9c0,1.3-0.6,2.5-1.7,3.5c-1.1,1-2.8,1.4-5,1.4c-2,0-3.6-0.4-4.7-1.2
				C572.8,965.8,572,964.7,571.6,963.4z"/>
			<path fill="#4D3F38" d="M588.1,950.9v-3.6h3.9v3.6H588.1z M588.1,967.5v-14.6h3.9v14.6H588.1z"/>
			<path fill="#4D3F38" d="M595,968.5l4.4,0.5c0.1,0.5,0.2,0.9,0.5,1.1c0.4,0.3,0.9,0.4,1.7,0.4c1,0,1.8-0.2,2.3-0.5
				c0.3-0.2,0.6-0.5,0.8-1c0.1-0.3,0.2-0.9,0.2-1.8v-2.1c-1.2,1.6-2.6,2.4-4.4,2.4c-2,0-3.5-0.8-4.7-2.5c-0.9-1.3-1.3-2.9-1.3-4.9
				c0-2.4,0.6-4.3,1.8-5.6c1.2-1.3,2.6-1.9,4.4-1.9c1.8,0,3.3,0.8,4.5,2.4v-2.1h3.6V966c0,1.7-0.1,3-0.4,3.9s-0.7,1.5-1.2,2
				c-0.5,0.5-1.2,0.9-2.1,1.1c-0.9,0.3-1.9,0.4-3.3,0.4c-2.5,0-4.2-0.4-5.3-1.3c-1-0.8-1.6-1.9-1.6-3.2
				C595,968.8,595,968.7,595,968.5z M598.5,959.9c0,1.6,0.3,2.7,0.9,3.4c0.6,0.7,1.3,1.1,2.2,1.1c0.9,0,1.7-0.4,2.4-1.1
				c0.7-0.7,1-1.8,1-3.3c0-1.5-0.3-2.6-0.9-3.4c-0.6-0.7-1.4-1.1-2.4-1.1c-0.9,0-1.7,0.4-2.3,1.1
				C598.8,957.3,598.5,958.4,598.5,959.9z"/>
			<path fill="#4D3F38" d="M625.3,967.5h-3.9v-7.5c0-1.6-0.1-2.6-0.2-3.1c-0.2-0.5-0.4-0.8-0.8-1.1c-0.4-0.3-0.8-0.4-1.3-0.4
				c-0.7,0-1.3,0.2-1.8,0.6c-0.5,0.4-0.9,0.9-1.1,1.5c-0.2,0.6-0.3,1.7-0.3,3.4v6.6H612v-14.6h3.6v2.1c1.3-1.7,2.9-2.5,4.8-2.5
				c0.9,0,1.6,0.2,2.3,0.5c0.7,0.3,1.2,0.7,1.6,1.2c0.4,0.5,0.6,1,0.8,1.6c0.1,0.6,0.2,1.5,0.2,2.6V967.5z"/>
			<path fill="#4D3F38" d="M637.2,962.9l3.9,0.6c-0.5,1.4-1.3,2.5-2.3,3.2s-2.4,1.1-4,1.1c-2.5,0-4.4-0.8-5.6-2.5
				c-1-1.3-1.4-3-1.4-5c0-2.4,0.6-4.3,1.9-5.7c1.3-1.4,2.9-2.1,4.8-2.1c2.2,0,3.9,0.7,5.1,2.2c1.3,1.4,1.9,3.6,1.8,6.6h-9.7
				c0,1.1,0.3,2,0.9,2.7c0.6,0.6,1.3,1,2.2,1c0.6,0,1.1-0.2,1.5-0.5C636.6,964.1,636.9,963.6,637.2,962.9z M637.4,959
				c0-1.1-0.3-2-0.9-2.6c-0.6-0.6-1.2-0.9-2-0.9c-0.8,0-1.5,0.3-2.1,0.9c-0.6,0.6-0.8,1.4-0.8,2.5H637.4z"/>
			<path fill="#4D3F38" d="M657.2,967.5h-3.6v-2.1c-0.6,0.8-1.3,1.5-2.1,1.9c-0.8,0.4-1.6,0.6-2.5,0.6c-1.7,0-3.1-0.7-4.3-2
				c-1.2-1.4-1.8-3.2-1.8-5.7c0-2.5,0.6-4.4,1.7-5.7c1.2-1.3,2.6-1.9,4.4-1.9c1.6,0,3,0.7,4.2,2v-7.3h3.9V967.5z M646.9,959.9
				c0,1.6,0.2,2.7,0.6,3.4c0.6,1,1.5,1.5,2.6,1.5c0.9,0,1.6-0.4,2.3-1.1c0.6-0.8,0.9-1.9,0.9-3.4c0-1.7-0.3-2.9-0.9-3.6
				c-0.6-0.7-1.4-1.1-2.3-1.1c-0.9,0-1.7,0.4-2.3,1.1C647.2,957.4,646.9,958.5,646.9,959.9z"/>
			<path fill="#4D3F38" d="M667.6,967.5v-20.2h3.9v7.3c1.2-1.4,2.6-2,4.2-2c1.8,0,3.3,0.6,4.4,1.9c1.2,1.3,1.7,3.1,1.7,5.6
				c0,2.5-0.6,4.4-1.8,5.8c-1.2,1.3-2.6,2-4.3,2c-0.8,0-1.7-0.2-2.5-0.6c-0.8-0.4-1.5-1-2.1-1.9v2.1H667.6z M671.4,959.9
				c0,1.5,0.2,2.6,0.7,3.4c0.7,1,1.6,1.5,2.7,1.5c0.9,0,1.6-0.4,2.2-1.1c0.6-0.7,0.9-1.9,0.9-3.4c0-1.7-0.3-2.9-0.9-3.6
				c-0.6-0.7-1.4-1.1-2.3-1.1c-0.9,0-1.7,0.4-2.3,1.1C671.7,957.3,671.4,958.4,671.4,959.9z"/>
			<path fill="#4D3F38" d="M682.6,952.9h4.1l3.5,10.4l3.4-10.4h4l-5.2,14.1l-0.9,2.5c-0.3,0.9-0.7,1.5-1,2c-0.3,0.4-0.7,0.8-1.1,1.1
				c-0.4,0.3-0.9,0.5-1.5,0.7c-0.6,0.2-1.2,0.2-2,0.2c-0.7,0-1.5-0.1-2.2-0.2l-0.3-3c0.6,0.1,1.2,0.2,1.6,0.2c0.9,0,1.6-0.3,2-0.8
				c0.4-0.5,0.8-1.2,1-2L682.6,952.9z"/>
		</g>
	</g>
</g>
</svg>
